<svg width="1280" height="760" viewBox="0 0 1280 760" fill="none" xmlns="http://www.w3.org/2000/svg">
  <rect width="1280" height="760" fill="#f8fafc"/>
  <rect x="0" y="0" width="300" height="760" fill="#ffffff"/>
  <rect x="299" y="0" width="1" height="760" fill="#e5e7eb"/>
  <text x="38" y="54" fill="#111827" font-family="Segoe UI, Arial, sans-serif" font-size="24" font-weight="700">Settings</text>
  <text x="38" y="102" fill="#374151" font-family="Segoe UI, Arial, sans-serif" font-size="15">OpenAI API key</text>
  <rect x="38" y="116" width="224" height="36" rx="6" fill="#f3f4f6" stroke="#d1d5db"/>
  <text x="38" y="190" fill="#374151" font-family="Segoe UI, Arial, sans-serif" font-size="15">Embedding provider</text>
  <circle cx="50" cy="221" r="7" fill="#2563eb"/>
  <text x="68" y="226" fill="#111827" font-family="Segoe UI, Arial, sans-serif" font-size="15">OpenAI</text>
  <circle cx="50" cy="255" r="7" fill="#ffffff" stroke="#9ca3af" stroke-width="2"/>
  <text x="68" y="260" fill="#374151" font-family="Segoe UI, Arial, sans-serif" font-size="15">Local Hugging Face</text>
  <text x="38" y="324" fill="#374151" font-family="Segoe UI, Arial, sans-serif" font-size="15">Chunk size</text>
  <rect x="38" y="345" width="224" height="4" rx="2" fill="#dbeafe"/>
  <circle cx="154" cy="347" r="9" fill="#2563eb"/>
  <text x="360" y="72" fill="#111827" font-family="Segoe UI, Arial, sans-serif" font-size="42" font-weight="750">ResearchGPT</text>
  <text x="362" y="108" fill="#4b5563" font-family="Segoe UI, Arial, sans-serif" font-size="18">RAG Based Research Paper Assistant</text>
  <text x="362" y="178" fill="#111827" font-family="Segoe UI, Arial, sans-serif" font-size="18" font-weight="600">Upload research PDFs</text>
  <rect x="360" y="202" width="820" height="150" rx="8" fill="#ffffff" stroke="#cbd5e1" stroke-width="2" stroke-dasharray="8 8"/>
  <text x="584" y="270" fill="#475569" font-family="Segoe UI, Arial, sans-serif" font-size="20">Drag and drop a PDF here</text>
  <text x="637" y="304" fill="#64748b" font-family="Segoe UI, Arial, sans-serif" font-size="15">Limit 200MB per file</text>
  <rect x="360" y="391" width="820" height="58" rx="8" fill="#ecfdf5" stroke="#bbf7d0"/>
  <text x="389" y="427" fill="#166534" font-family="Segoe UI, Arial, sans-serif" font-size="18" font-weight="600">Indexed 1 PDF file across 12 text-bearing pages.</text>
  <text x="362" y="506" fill="#111827" font-family="Segoe UI, Arial, sans-serif" font-size="18" font-weight="600">Ask a question about the uploaded paper</text>
  <rect x="360" y="530" width="820" height="48" rx="7" fill="#ffffff" stroke="#cbd5e1"/>
  <text x="383" y="561" fill="#64748b" font-family="Segoe UI, Arial, sans-serif" font-size="17">What is the main contribution, and what evidence supports it?</text>
</svg>
