<svg width="1280" height="760" viewBox="0 0 1280 760" fill="none" xmlns="http://www.w3.org/2000/svg">
  <rect width="1280" height="760" fill="#f8fafc"/>
  <rect x="0" y="0" width="300" height="760" fill="#ffffff"/>
  <rect x="299" y="0" width="1" height="760" fill="#e5e7eb"/>
  <text x="38" y="54" fill="#111827" font-family="Segoe UI, Arial, sans-serif" font-size="24" font-weight="700">Settings</text>
  <rect x="38" y="92" width="224" height="36" rx="6" fill="#f3f4f6" stroke="#d1d5db"/>
  <rect x="38" y="162" width="224" height="36" rx="6" fill="#ffffff" stroke="#2563eb"/>
  <text x="58" y="185" fill="#111827" font-family="Segoe UI, Arial, sans-serif" font-size="15">OpenAI</text>
  <text x="360" y="72" fill="#111827" font-family="Segoe UI, Arial, sans-serif" font-size="42" font-weight="750">ResearchGPT</text>
  <text x="362" y="108" fill="#4b5563" font-family="Segoe UI, Arial, sans-serif" font-size="18">RAG Based Research Paper Assistant</text>
  <rect x="360" y="156" width="820" height="48" rx="7" fill="#ffffff" stroke="#cbd5e1"/>
  <text x="383" y="187" fill="#111827" font-family="Segoe UI, Arial, sans-serif" font-size="17">What limitations do the authors mention?</text>
  <text x="362" y="260" fill="#111827" font-family="Segoe UI, Arial, sans-serif" font-size="25" font-weight="700">Answer</text>
  <rect x="360" y="284" width="820" height="132" rx="8" fill="#ffffff" stroke="#e5e7eb"/>
  <text x="386" y="323" fill="#111827" font-family="Segoe UI, Arial, sans-serif" font-size="17">The paper notes that performance depends on retrieval quality and</text>
  <text x="386" y="354" fill="#111827" font-family="Segoe UI, Arial, sans-serif" font-size="17">that errors can occur when relevant context is missing or noisy [1].</text>
  <text x="386" y="385" fill="#111827" font-family="Segoe UI, Arial, sans-serif" font-size="17">It also identifies future work around stronger evaluation [2].</text>
  <text x="362" y="474" fill="#111827" font-family="Segoe UI, Arial, sans-serif" font-size="25" font-weight="700">Sources</text>
  <rect x="360" y="500" width="820" height="54" rx="8" fill="#ffffff" stroke="#e5e7eb"/>
  <text x="386" y="534" fill="#111827" font-family="Segoe UI, Arial, sans-serif" font-size="17" font-weight="650">[1] attention-is-all-you-need.pdf, page 7</text>
  <text x="928" y="534" fill="#475569" font-family="Segoe UI, Arial, sans-serif" font-size="15">similarity 0.842</text>
  <rect x="360" y="568" width="820" height="54" rx="8" fill="#ffffff" stroke="#e5e7eb"/>
  <text x="386" y="602" fill="#111827" font-family="Segoe UI, Arial, sans-serif" font-size="17" font-weight="650">[2] attention-is-all-you-need.pdf, page 8</text>
  <text x="928" y="602" fill="#475569" font-family="Segoe UI, Arial, sans-serif" font-size="15">similarity 0.791</text>
  <rect x="360" y="648" width="820" height="52" rx="8" fill="#eff6ff" stroke="#bfdbfe"/>
  <text x="386" y="681" fill="#1e40af" font-family="Segoe UI, Arial, sans-serif" font-size="17" font-weight="650">Show retrieved chunks</text>
</svg>
